<svg width="194" height="180" viewBox="0 0 194 180" fill="none" xmlns="http://www.w3.org/2000/svg">
<g opacity="0.5" clip-path="url(#clip0_100_756)" filter="url(#filter0_f_100_756)">
<path d="M161.774 104.055C171.743 109.757 171.878 118.907 161.909 124.609L115.162 151.396C105.193 157.099 89.0264 157.099 79.0573 151.396L32.1754 124.609C22.2063 118.907 22.0716 109.757 32.0407 104.055L78.6531 77.4002C88.6223 71.698 104.788 71.698 114.758 77.4002L161.774 104.055Z" fill="#32CD33"/>
</g>
<g clip-path="url(#clip1_100_756)">
<path d="M175.496 63.0769L119.247 95.916C107.217 102.907 87.7084 102.907 75.6782 95.916L19.1039 63.0769C13.0888 59.663 10 55.111 10 50.3965V56.8993C10 61.4512 13.0888 66.1658 19.1039 69.5797L75.6782 102.419C87.7084 109.409 107.217 109.409 119.247 102.419L175.496 69.7423C181.511 66.3283 184.437 61.7764 184.437 57.2244V50.7216C184.437 55.111 181.511 59.663 175.496 63.0769Z" fill="#32CD33"/>
<path d="M175.496 37.8791C187.526 44.8696 187.689 56.0869 175.659 63.0774L119.247 95.9166C107.217 102.907 87.7083 102.907 75.6781 95.9166L19.1038 63.0774C7.07367 56.0869 6.9111 44.8696 18.9413 37.8791L75.1904 5.20259C87.2206 -1.78791 106.729 -1.78791 118.759 5.20259L175.496 37.8791Z" fill="white"/>
</g>
<path d="M93.9517 52.52H89.8717V56.78H85.6117V61.1H72.6517V57.02H68.3917V52.7H64.0717V39.74H68.1517V35.48H72.4717V31.22H85.3717V35.3H89.6917V39.56H93.9517V52.52ZM85.3717 56.78V39.56H81.1117V35.48H72.6517V52.7H76.9717V56.78H85.3717ZM126.94 56.78H122.86V61.1H101.38V57.02H97.06V52.64H105.52V56.78H118.42V44.12H97.06V31.22H122.68V35.36H105.64V39.56H122.68V43.82H126.94V56.78Z" fill="#01321F"/>
<defs>
<filter id="filter0_f_100_756" x="0.631348" y="49.1565" width="192.687" height="135.788" filterUnits="userSpaceOnUse" color-interpolation-filters="sRGB">
<feFlood flood-opacity="0" result="BackgroundImageFix"/>
<feBlend mode="normal" in="SourceGraphic" in2="BackgroundImageFix" result="shape"/>
<feGaussianBlur stdDeviation="12" result="effect1_foregroundBlur_100_756"/>
</filter>
<clipPath id="clip0_100_756">
<rect width="144.687" height="87.7877" fill="white" transform="translate(24.6313 73.1565)"/>
</clipPath>
<clipPath id="clip1_100_756">
<rect width="174.6" height="107.621" fill="white" transform="translate(10)"/>
</clipPath>
</defs>
</svg>
